<mxfile host="app.diagrams.net" modified="2023-09-27T09:18:59.252Z" agent="Mozilla/5.0 (Windows NT 10.0; Win64; x64) AppleWebKit/537.36 (KHTML, like Gecko) Chrome/117.0.0.0 Safari/537.36" etag="MJf5RcBXeBD-SzEVYMzh" version="21.8.2" type="github">
  <diagram name="Trang-1" id="_f0rtV2DIZLGQZC7rz7D">
    <mxGraphModel dx="1050" dy="566" grid="1" gridSize="10" guides="1" tooltips="1" connect="1" arrows="1" fold="1" page="1" pageScale="1" pageWidth="827" pageHeight="1169" math="0" shadow="0">
      <root>
        <mxCell id="0" />
        <mxCell id="1" parent="0" />
        <mxCell id="c5LRPupV3X-f1g-pe_Kx-1" value="&lt;font style=&quot;font-size: 14px;&quot;&gt;Inventory-service&lt;/font&gt;" style="rounded=0;whiteSpace=wrap;html=1;" vertex="1" parent="1">
          <mxGeometry x="460" y="390" width="160" height="70" as="geometry" />
        </mxCell>
        <mxCell id="c5LRPupV3X-f1g-pe_Kx-3" value="&lt;span style=&quot;font-size: 14px;&quot;&gt;Order-service&lt;/span&gt;" style="rounded=0;whiteSpace=wrap;html=1;" vertex="1" parent="1">
          <mxGeometry x="100" y="120" width="160" height="70" as="geometry" />
        </mxCell>
        <mxCell id="c5LRPupV3X-f1g-pe_Kx-5" value="&lt;span style=&quot;font-size: 14px;&quot;&gt;Discovery-Server&lt;/span&gt;" style="rounded=0;whiteSpace=wrap;html=1;" vertex="1" parent="1">
          <mxGeometry x="590" y="60" width="210" height="160" as="geometry" />
        </mxCell>
        <mxCell id="c5LRPupV3X-f1g-pe_Kx-6" value="" style="endArrow=classic;html=1;rounded=0;exitX=1;exitY=0.25;exitDx=0;exitDy=0;entryX=0;entryY=0.5;entryDx=0;entryDy=0;" edge="1" parent="1" source="c5LRPupV3X-f1g-pe_Kx-3" target="c5LRPupV3X-f1g-pe_Kx-5">
          <mxGeometry width="50" height="50" relative="1" as="geometry">
            <mxPoint x="390" y="220" as="sourcePoint" />
            <mxPoint x="500" y="160" as="targetPoint" />
          </mxGeometry>
        </mxCell>
        <mxCell id="c5LRPupV3X-f1g-pe_Kx-7" value="&lt;font style=&quot;font-size: 12px;&quot;&gt;1: Where i can find Inventory-service&lt;/font&gt;" style="edgeLabel;html=1;align=center;verticalAlign=middle;resizable=0;points=[];" vertex="1" connectable="0" parent="c5LRPupV3X-f1g-pe_Kx-6">
          <mxGeometry x="-0.2117" y="2" relative="1" as="geometry">
            <mxPoint x="7" y="-16" as="offset" />
          </mxGeometry>
        </mxCell>
        <mxCell id="c5LRPupV3X-f1g-pe_Kx-8" value="" style="endArrow=classic;html=1;rounded=0;exitX=0;exitY=0.75;exitDx=0;exitDy=0;" edge="1" parent="1" source="c5LRPupV3X-f1g-pe_Kx-5">
          <mxGeometry width="50" height="50" relative="1" as="geometry">
            <mxPoint x="512.31" y="190.00000000000006" as="sourcePoint" />
            <mxPoint x="260" y="179.88664439830285" as="targetPoint" />
          </mxGeometry>
        </mxCell>
        <mxCell id="c5LRPupV3X-f1g-pe_Kx-9" value="&lt;font style=&quot;font-size: 12px;&quot;&gt;2: Response paticular IP address to connect Inventory-serivce&lt;/font&gt;" style="edgeLabel;html=1;align=center;verticalAlign=middle;resizable=0;points=[];" vertex="1" connectable="0" parent="c5LRPupV3X-f1g-pe_Kx-8">
          <mxGeometry x="-0.2384" y="1" relative="1" as="geometry">
            <mxPoint x="-34" y="9" as="offset" />
          </mxGeometry>
        </mxCell>
        <mxCell id="c5LRPupV3X-f1g-pe_Kx-10" value="" style="endArrow=classic;html=1;rounded=0;exitX=0.5;exitY=1;exitDx=0;exitDy=0;entryX=0.355;entryY=0.006;entryDx=0;entryDy=0;entryPerimeter=0;" edge="1" parent="1" source="c5LRPupV3X-f1g-pe_Kx-3" target="c5LRPupV3X-f1g-pe_Kx-1">
          <mxGeometry width="50" height="50" relative="1" as="geometry">
            <mxPoint x="390" y="330" as="sourcePoint" />
            <mxPoint x="440" y="280" as="targetPoint" />
          </mxGeometry>
        </mxCell>
        <mxCell id="c5LRPupV3X-f1g-pe_Kx-11" value="3: Call" style="edgeLabel;html=1;align=center;verticalAlign=middle;resizable=0;points=[];" vertex="1" connectable="0" parent="c5LRPupV3X-f1g-pe_Kx-10">
          <mxGeometry x="0.0139" y="-2" relative="1" as="geometry">
            <mxPoint x="10" y="-13" as="offset" />
          </mxGeometry>
        </mxCell>
      </root>
    </mxGraphModel>
  </diagram>
</mxfile>
